<svg width="48" height="48" viewBox="0 0 48 48" fill="none" xmlns="http://www.w3.org/2000/svg">
  <path d="M24 44C34 44 42 37 42 26C42 16 34 10 24 10C14 10 6 16 6 26C6 37 14 44 24 44Z" fill="#FF0000" stroke="#00AA00" stroke-width="2" stroke-linejoin="round"/>
  
  <path d="M15 20C13 23 13 29 15 32" stroke="#00AA00" stroke-width="2" stroke-linecap="round"/>
  <path d="M33 20C35 23 35 29 33 32" stroke="#00AA00" stroke-width="2" stroke-linecap="round"/>
  <path d="M24 36C20 38 28 38 24 40" stroke="#00AA00" stroke-width="2" stroke-linecap="round"/>

  <path d="M24 8C27 8 30 10 32 13C33 15 30 18 27 18C25 18 23 16 24 14" fill="#FF0000" stroke="#00AA00" stroke-width="2" stroke-linecap="round" stroke-linejoin="round"/>
  <path d="M24 14C25 16 23 18 21 18C18 18 15 15 16 13C18 10 21 8 24 8Z" fill="#FF0000" stroke="#00AA00" stroke-width="2" stroke-linecap="round" stroke-linejoin="round"/>
  
  <path d="M24 8L24 4" stroke="#00AA00" stroke-width="2" stroke-linecap="round"/>
</svg>